<svg width="351" height="145" viewBox="0 0 351 145" fill="none" xmlns="http://www.w3.org/2000/svg">
<path d="M33.25 12.375C37.4167 12.625 40.9167 12.8333 43.75 13C46.6667 13.0833 49.0833 13.1667 51 13.25C53.1667 13.3333 55 13.3333 56.5 13.25C58 13.1667 60.0417 12.9583 62.625 12.625C64.7917 12.375 67.6667 12 71.25 11.5C74.9167 10.9167 79.4583 10.1667 84.875 9.25C82.9583 11.1667 81.4583 12.9167 80.375 14.5C79.375 16 78.5833 17.2917 78 18.375C77.3333 19.7083 76.875 20.8333 76.625 21.75C76.4583 22.5833 76.625 24.6667 77.125 28C77.625 31.3333 78.3333 35.2917 79.25 39.875C80.1667 44.375 81.1667 49.2083 82.25 54.375C83.3333 59.4583 84.4167 64.25 85.5 68.75C86.5833 73.1667 87.5417 76.9583 88.375 80.125C89.2917 83.2083 89.9583 85.0417 90.375 85.625C91.625 87.375 92.4167 88.5417 92.75 89.125C93.0833 89.625 93.6667 90.0833 94.5 90.5C94.8333 90.6667 95.375 90.9167 96.125 91.25C96.7917 91.5833 97.6667 92 98.75 92.5C99.9167 93 101.375 93.5833 103.125 94.25C99.875 94.4167 97.0833 94.5417 94.75 94.625C92.4167 94.625 90.5 94.6667 89 94.75C87.25 94.8333 85.75 94.9167 84.5 95C83.25 95 81.75 95.0833 80 95.25C78.5 95.4167 76.5417 95.5833 74.125 95.75C71.7917 95.9167 69.0417 96.0833 65.875 96.25C67.5417 95.0833 68.875 94.0417 69.875 93.125C70.9583 92.125 71.7917 91.2917 72.375 90.625C73.0417 89.7917 73.5 89.0417 73.75 88.375C73.9167 87.625 74.0417 86.5 74.125 85C74.2083 83.6667 74.2083 81.9167 74.125 79.75C74.0417 77.5 73.8333 74.5833 73.5 71L40.625 74.375C39.7917 75.7917 39.1667 77.0417 38.75 78.125C38.3333 79.125 38.0417 80 37.875 80.75C37.625 81.6667 37.5417 82.4167 37.625 83C37.7917 83.6667 38.0833 84.4583 38.5 85.375C38.9167 86.2083 39.5 87.2083 40.25 88.375C41.0833 89.4583 42.2917 90.75 43.875 92.25C41.7917 92.1667 39.6667 92.125 37.5 92.125C35.3333 92.125 33.3333 92.1667 31.5 92.25C29.3333 92.3333 27.2083 92.4167 25.125 92.5C23.0417 92.5833 20.6667 92.7083 18 92.875C15.75 93.0417 13.125 93.25 10.125 93.5C7.04167 93.6667 3.75 93.9167 0.25 94.25C2.41667 93.25 4.25 92.25 5.75 91.25C7.25 90.1667 8.5 89.1667 9.5 88.25C10.6667 87.25 11.6667 86.2917 12.5 85.375C13.0833 84.5417 14.25 82.625 16 79.625C17.75 76.5417 19.7083 72.9167 21.875 68.75C24.125 64.5833 26.4583 60.125 28.875 55.375C31.375 50.625 33.625 46.1667 35.625 42C37.625 37.75 39.25 34.0833 40.5 31C41.75 27.9167 42.375 25.9167 42.375 25C42.2083 23.9167 41.7917 22.7083 41.125 21.375C40.5417 20.2083 39.625 18.875 38.375 17.375C37.2083 15.875 35.5 14.2083 33.25 12.375ZM72 61.75C71.5 58.8333 71.0417 56.3333 70.625 54.25C70.2083 52.0833 69.875 50.2917 69.625 48.875C69.2917 47.2083 69.0417 45.75 68.875 44.5C68.625 43.3333 68.3333 41.8333 68 40C67.6667 38.4167 67.25 36.4583 66.75 34.125C66.3333 31.7083 65.7917 28.8333 65.125 25.5C60.375 35 56.6667 42.375 54 47.625C51.4167 52.7917 49.5417 56.5833 48.375 59C46.9583 61.8333 46.1667 63.5 46 64L72 61.75Z" fill="#FF0000"/>
<path d="M140.273 145C136.348 145 132.55 143.379 128.881 140.136C125.297 136.893 122.268 132.2 119.793 126.056C117.404 119.912 115.996 112.488 115.569 103.784C112.924 104.04 110.492 104.168 108.273 104.168C103.324 104.168 99.697 103.528 97.393 102.248C95.1743 100.968 94.065 99.304 94.065 97.256C94.065 95.208 95.0463 92.9467 97.009 90.472C98.9717 87.9973 101.702 85.5227 105.201 83.048C108.7 80.488 112.796 78.184 117.489 76.136C119.11 67.432 121.713 58.0453 125.297 47.976C128.966 37.8213 133.873 27.0693 140.017 15.72C140.614 14.6107 141.51 14.056 142.705 14.056C143.473 14.056 144.156 14.312 144.753 14.824C145.35 15.336 145.649 16.0187 145.649 16.872C145.649 17.2987 145.521 17.8533 145.265 18.536C139.804 29.544 135.238 39.656 131.569 48.872C127.985 58.0027 125.169 66.3653 123.121 73.96C126.961 72.5093 131.057 71.3147 135.409 70.376C139.761 69.4373 144.198 68.8827 148.721 68.712C149.916 68.712 150.513 68.8827 150.513 69.224C150.513 69.5653 150.086 69.9067 149.233 70.248C148.465 70.504 147.142 70.6747 145.265 70.76C141.084 71.016 137.073 71.6133 133.233 72.552C129.478 73.4053 125.937 74.472 122.609 75.752C121.329 80.7013 120.348 85.3093 119.665 89.576C118.982 93.7573 118.556 97.64 118.385 101.224C127.174 99.3467 135.153 96.616 142.321 93.032C149.574 89.3627 155.974 85.1387 161.521 80.36C167.068 75.5813 171.718 70.632 175.473 65.512C177.862 62.2693 179.569 59.4107 180.593 56.936C181.702 54.376 182.257 52.1573 182.257 50.28C182.257 47.5493 181.404 45.416 179.697 43.88C177.99 42.2587 175.729 41.1067 172.913 40.424C170.097 39.656 167.025 39.272 163.697 39.272C160.198 39.272 156.657 39.6133 153.073 40.296C149.489 40.8933 146.246 41.7467 143.345 42.856C142.662 43.0267 142.193 43.112 141.937 43.112C140.828 43.112 140.273 42.728 140.273 41.96C140.273 41.192 140.742 40.5947 141.681 40.168C152.177 34.1947 159.644 28.776 164.081 23.912C168.518 19.048 170.737 14.952 170.737 11.624C170.737 8.72266 169.372 6.504 166.641 4.96799C163.996 3.34666 160.497 2.536 156.145 2.536C152.732 2.536 148.892 3.09066 144.625 4.2C140.358 5.30933 135.964 7.10133 131.441 9.576C127.686 11.624 124.273 14.056 121.201 16.872C118.214 19.6027 115.654 22.4613 113.521 25.448C111.473 28.3493 109.937 31.1227 108.913 33.768C107.889 36.328 107.505 38.504 107.761 40.296C107.761 40.4667 107.761 40.68 107.761 40.936C107.846 41.1067 107.889 41.2773 107.889 41.448C107.889 43.5813 107.249 44.648 105.969 44.648C105.372 44.648 104.732 44.2213 104.049 43.368C103.452 42.5147 103.153 41.2347 103.153 39.528C103.153 36.968 103.921 34.2373 105.457 31.336C107.078 28.4347 109.212 25.5333 111.857 22.632C114.588 19.6453 117.617 16.872 120.945 14.312C124.273 11.6667 127.729 9.40533 131.313 7.52799C135.921 5.05333 140.444 3.21866 144.881 2.02399C149.404 0.829328 153.542 0.231995 157.297 0.231995C162.502 0.231995 166.726 1.25599 169.969 3.30399C173.212 5.352 174.833 8.21067 174.833 11.88C174.833 15.2933 173.169 19.2613 169.841 23.784C166.513 28.3067 160.924 33.2987 153.073 38.76C155.718 38.3333 158.193 38.0347 160.497 37.864C162.801 37.608 164.934 37.48 166.897 37.48C174.236 37.48 179.526 38.7173 182.769 41.192C186.097 43.5813 187.761 46.696 187.761 50.536C187.761 53.352 186.95 56.424 185.329 59.752C183.793 62.9947 181.617 66.3653 178.801 69.864C174.705 74.8987 169.542 79.7627 163.313 84.456C157.169 89.1493 150.257 93.2027 142.577 96.616C134.982 100.029 126.876 102.333 118.257 103.528C118.086 111.123 118.769 117.395 120.305 122.344C121.926 127.293 123.974 131.133 126.449 133.864C128.924 136.68 131.398 138.643 133.873 139.752C136.348 140.947 138.396 141.544 140.017 141.544C141.212 141.544 142.022 141.331 142.449 140.904C142.79 140.477 143.302 140.264 143.985 140.264C144.668 140.264 145.308 140.52 145.905 141.032C146.502 141.544 146.801 142.099 146.801 142.696C146.801 143.208 146.502 143.592 145.905 143.848C144.028 144.616 142.15 145 140.273 145ZM108.785 102.504C109.724 102.504 110.748 102.419 111.857 102.248C112.966 102.163 114.161 102.035 115.441 101.864C115.356 98.28 115.441 94.5253 115.697 90.6C115.953 86.6747 116.422 82.5787 117.105 78.312C111.644 81.128 107.334 84.2853 104.177 87.784C101.02 91.1973 99.441 94.2267 99.441 96.872C99.441 98.4933 100.209 99.816 101.745 100.84C103.281 101.949 105.628 102.504 108.785 102.504Z" fill="#FF8A00"/>
<path d="M228.755 8.424C235.667 8.424 241.427 10.0027 246.035 13.16C250.728 16.232 253.075 20.1573 253.075 24.936C253.075 29.7147 250.387 32.1467 245.011 32.232C245.011 26.856 243.475 22.7173 240.403 19.816C237.331 16.8293 233.107 15.336 227.731 15.336C218.942 15.336 212.243 18.8773 207.635 25.96C203.027 33.0427 200.723 42.4293 200.723 54.12C200.723 78.7813 210.238 91.112 229.267 91.112C238.142 91.112 245.822 88.5093 252.307 83.304C253.416 83.9013 253.971 84.84 253.971 86.12C253.971 88.7653 251.368 91.5813 246.163 94.568C240.958 97.4693 234.6 98.92 227.091 98.92C215.571 98.92 206.696 95.1653 200.467 87.656C194.323 80.0613 191.08 69.48 190.739 55.912C190.483 42.2587 193.726 30.952 200.467 21.992C207.294 12.9467 216.723 8.424 228.755 8.424Z" fill="#36B067"/>
<path d="M268.438 8.5625H294.438C306.562 8.5625 315.458 9.41667 321.125 11.125C327.583 13.125 332.562 15.6875 336.062 18.8125C339.604 21.9375 342.375 25.1667 344.375 28.5C348.458 35.2917 350.5 43 350.5 51.625C350.5 65.2083 345.625 76.2083 335.875 84.625C328.958 90.6667 320.812 94.3958 311.438 95.8125C306.229 96.6042 298.938 97 289.562 97H268.438V8.5625ZM300.312 91.8125C300.979 91.8542 301.583 91.875 302.125 91.875H303.562C314.854 91.875 324.5 88.3542 332.5 81.3125C340.958 73.8958 345.188 64.0417 345.188 51.75C345.188 44 343.333 37.0208 339.625 30.8125C334.25 21.7708 325.75 16.2917 314.125 14.375C310.333 13.75 305.729 13.3958 300.312 13.3125V91.8125Z" fill="#E80A8F"/>
</svg>
