<svg width="356" height="349" viewBox="0 0 356 349" fill="none" xmlns="http://www.w3.org/2000/svg">
<ellipse cx="242.5" cy="150" rx="4.5" ry="6" fill="#D9D9D9"/>
<ellipse cx="178" cy="173" rx="178" ry="173" fill="#FDA4FF"/>
<ellipse cx="177.5" cy="143.5" rx="65.5" ry="60.5" fill="#FFE2C7"/>
<path d="M195 204.686L208.5 217.5C237.7 211.9 270 278.167 282.5 312C286.5 333.2 206.833 344.167 166.5 347C118.1 344.2 96 330.833 91 324.5C81.8 283.7 117.167 236.167 136 217.5L138.5 215.5C137.5 212.833 152 214.686 159.5 206.186C165.304 199.608 186.333 206.019 195 204.686Z" fill="#A916EE" stroke="#BE7AF3" stroke-width="2"/>
<path d="M175.092 279C171.565 278.907 166.948 278.432 162 277.397C158.139 276.59 154.077 275.442 150.175 273.869C147.721 272.881 145.33 271.724 143.092 270.378C139.936 268.48 137.084 266.207 134.787 263.5C132.7 261.04 131.072 258.221 130.092 255C129.834 254.152 129.594 253.348 129.373 252.588L127.092 283L130.092 287C127.092 283 129.292 301.8 146.092 309C167.092 318 169.092 309 190.092 309C206.892 309 223.092 294.333 229.092 287L223.092 248C223.077 248.479 223.04 248.98 222.981 249.5C222.078 257.459 215.866 269.891 198 275.745C195.052 276.711 191.787 277.497 188.176 278.055C184.934 278.556 181.413 278.873 177.592 278.969C176.773 278.99 175.939 279 175.092 279Z" fill="#D3AD9D"/>
<path d="M143.886 212.559L143.092 213L144.962 225.049C146.58 223.882 148.318 222.796 150.175 221.825L147.592 210.5L145.852 211.467C145.445 213.64 146.491 213.337 143.886 212.559Z" fill="#F9F7F3"/>
<path d="M147.592 242L154.092 239L150.175 221.825C148.318 222.796 146.58 223.882 144.962 225.049L147.592 242Z" fill="#F9F7F3"/>
<path d="M190.092 226L195.092 255L199.592 252.588L195.092 226H190.092Z" fill="#F9F7F3"/>
<path d="M168.592 228.5L171.092 255L177.592 252.588L175.092 228.5H168.592Z" fill="#F9F7F3"/>
<path d="M168.592 228.5L173.592 227.5C174.397 225.085 175.301 221.009 174.092 217.5C171.4 212.943 167.932 212.053 165.092 217.5C165.064 217.577 165.036 217.655 165.009 217.733C163.627 221.743 164.174 226.161 168.592 228.5Z" fill="#FBFF48"/>
<path d="M174.092 217.5C173.299 215.198 171.444 213.609 168.592 212.5C167.635 213.851 165.849 215.424 165.092 217.5C167.932 212.053 171.4 212.943 174.092 217.5Z" fill="#FBFF48"/>
<path d="M185.882 219.135C188.999 219.349 192.516 219.831 196.112 220.671C195.8 217.801 194.245 214.215 190.092 210.5C188.461 212.701 186.512 216.075 185.882 219.135Z" fill="#FBFF48"/>
<path d="M190.092 226H195.092C195.772 224.942 196.371 223.053 196.112 220.671C192.516 219.831 188.999 219.349 185.882 219.135C185.344 221.748 185.769 224.132 188.176 225.361L190.092 226Z" fill="#FBFF48"/>
<path d="M139.592 199C137.759 202.833 135.592 210.8 141.592 212C142.46 212.174 143.147 212.346 143.69 212.502L146.092 210.5C147.259 206.667 147.592 199 139.592 199Z" fill="#FBFF48"/>
<path fill-rule="evenodd" clip-rule="evenodd" d="M165.009 217.733C165.041 217.658 165.068 217.58 165.092 217.5C165.064 217.577 165.036 217.655 165.009 217.733ZM190.092 226L188.176 225.361C188.713 225.635 189.348 225.851 190.092 226Z" fill="#D3AD9D"/>
<path d="M130.092 243L129.373 252.588C129.594 253.348 129.834 254.152 130.092 255C137.692 251 136.389 259 134.787 263.5C141.431 260.3 143.092 266.752 143.092 270.378C147.818 266.876 149.783 271.246 150.175 273.869C155.235 267.574 160.167 273.598 162 277.397C169.274 270.279 175.425 275.479 177.592 278.969C179.918 272.096 185.618 275.496 188.176 278.055C191.635 270.811 196.167 273.496 198 275.745C198 267.149 203.333 268.585 206 270.378C206.8 262.876 211.333 264 213.5 265.5C213.5 257.1 217.167 256.333 219 257C215.8 251.8 220.321 249.833 222.981 249.5C223.04 248.98 223.077 248.479 223.092 248C223.092 231.392 209.085 223.701 196.112 220.671C196.371 223.053 195.772 224.942 195.092 226L199.592 252.588L195.092 255L190.092 226C189.348 225.851 188.713 225.635 188.176 225.361C185.769 224.132 185.344 221.748 185.882 219.135C184.535 219.043 183.264 219 182.092 219C179.221 218.224 176.733 217.771 174.092 217.5C175.301 221.009 174.397 225.085 173.592 227.5L168.592 228.5H175.092L177.592 252.588L171.092 255L168.592 228.5C164.174 226.161 163.627 221.743 165.009 217.733C164.186 219.725 160.907 220.026 157.423 220.345C154.803 220.585 152.068 220.836 150.175 221.825L154.092 239L147.592 242L144.962 225.049C137.367 230.524 132.404 237.76 130.092 243Z" fill="#FBE2FF"/>
<path d="M206 270.378C203.333 268.585 198 267.149 198 275.745C215.866 269.891 222.078 257.459 222.981 249.5C220.321 249.833 215.8 251.8 219 257C217.167 256.333 213.5 257.1 213.5 265.5C211.333 264 206.8 262.876 206 270.378Z" fill="#FF01E6"/>
<path d="M188.176 278.055C191.787 277.497 195.052 276.711 198 275.745C196.167 273.496 191.635 270.811 188.176 278.055Z" fill="#FF01E6"/>
<path d="M177.592 278.969C181.413 278.873 184.934 278.556 188.176 278.055C185.618 275.496 179.918 272.096 177.592 278.969Z" fill="#FF01E6"/>
<path d="M162 277.397C166.948 278.432 171.565 278.907 175.092 279C175.939 279 176.773 278.99 177.592 278.969C175.425 275.479 169.274 270.279 162 277.397Z" fill="#FF01E6"/>
<path d="M150.175 273.869C154.077 275.442 158.139 276.59 162 277.397C160.167 273.598 155.235 267.574 150.175 273.869Z" fill="#FF01E6"/>
<path d="M143.092 270.378C145.33 271.724 147.721 272.881 150.175 273.869C149.783 271.246 147.818 266.876 143.092 270.378Z" fill="#FF01E6"/>
<path d="M130.092 255C131.072 258.221 132.7 261.04 134.787 263.5C136.389 259 137.692 251 130.092 255Z" fill="#FF01E6"/>
<path d="M134.787 263.5C137.084 266.207 139.936 268.48 143.092 270.378C143.092 266.752 141.431 260.3 134.787 263.5Z" fill="#FF01E6"/>
<path d="M182.092 219L181.962 219.483L182.026 219.5H182.092V219ZM130.092 255L129.614 255.146L130.092 255ZM175.092 279L175.079 279.5H175.092V279ZM146.092 309L145.895 309.46L146.092 309ZM229.092 287L229.479 287.317L229.62 287.144L229.586 286.924L229.092 287ZM127.092 283L126.593 282.963L126.579 283.15L126.692 283.3L127.092 283ZM147.592 242L147.098 242.077L147.2 242.732L147.802 242.454L147.592 242ZM143.092 213L142.772 212.616L142.555 212.797L142.598 213.077L143.092 213ZM147.592 210.5L148.08 210.389L147.931 209.739L147.349 210.063L147.592 210.5ZM154.092 239L154.302 239.454L154.67 239.284L154.58 238.889L154.092 239ZM195.092 255L194.599 255.085L194.717 255.768L195.328 255.441L195.092 255ZM199.592 252.588L199.828 253.028L200.145 252.858L200.085 252.504L199.592 252.588ZM171.092 255L170.594 255.047L170.655 255.695L171.266 255.469L171.092 255ZM175.092 228.5L175.589 228.448L175.543 228H175.092V228.5ZM177.592 252.588L177.766 253.056L178.129 252.921L178.089 252.536L177.592 252.588ZM141.592 212L141.494 212.49L141.592 212ZM139.592 199V198.5H139.277L139.141 198.784L139.592 199ZM146.092 210.5L146.57 210.646L146.092 210.5ZM168.592 212.5L168.773 212.034L168.41 211.893L168.184 212.211L168.592 212.5ZM173.592 227.5L173.69 227.99L173.975 227.933L174.066 227.658L173.592 227.5ZM190.092 210.5L190.425 210.127L190.017 209.762L189.69 210.202L190.092 210.5ZM188.176 225.361L187.949 225.806L188.176 225.361ZM165.092 217.5L164.622 217.329V217.329L165.092 217.5ZM134.787 263.5L134.406 263.823L134.787 263.5ZM143.092 270.378L142.834 270.807L143.092 270.378ZM150.175 273.869L149.988 274.333L150.175 273.869ZM198 275.745L198.156 276.22L198 275.745ZM206 270.378L205.721 270.793L206.409 271.256L206.497 270.431L206 270.378ZM213.5 265.5L213.215 265.911L214 266.454V265.5H213.5ZM219 257L218.829 257.47L220.178 257.96L219.426 256.738L219 257ZM157.423 220.345L157.469 220.843H157.469L157.423 220.345ZM130.492 286.7C130.289 286.429 130.071 286.203 129.835 286.072C129.579 285.929 129.233 285.874 128.93 286.101C128.684 286.285 128.579 286.58 128.526 286.823C128.469 287.087 128.452 287.404 128.464 287.755C128.514 289.154 129.057 291.419 130.21 294.004C132.523 299.188 137.352 305.798 145.895 309.46L146.289 308.54C138.032 305.002 133.361 298.612 131.124 293.596C130.002 291.081 129.507 288.946 129.464 287.72C129.453 287.415 129.471 287.187 129.504 287.033C129.541 286.859 129.58 286.864 129.529 286.902C129.419 286.984 129.317 286.928 129.35 286.946C129.404 286.976 129.52 287.071 129.692 287.3L130.492 286.7ZM145.895 309.46C151.174 311.722 155.284 312.864 158.813 313.293C162.347 313.723 165.277 313.435 168.188 312.866C174.01 311.727 179.656 309.5 190.092 309.5V308.5C179.528 308.5 173.674 310.773 167.996 311.884C165.157 312.44 162.337 312.714 158.934 312.301C155.525 311.886 151.51 310.778 146.289 308.54L145.895 309.46ZM190.092 309.5C198.631 309.5 206.979 305.776 213.919 301.166C220.864 296.553 226.45 291.019 229.479 287.317L228.705 286.683C225.734 290.315 220.22 295.78 213.365 300.334C206.505 304.89 198.353 308.5 190.092 308.5V309.5ZM229.586 286.924L223.586 247.924L222.598 248.076L228.598 287.076L229.586 286.924ZM129.593 242.963L128.874 252.55L129.872 252.625L130.591 243.037L129.593 242.963ZM128.893 252.727C129.115 253.49 129.355 254.295 129.614 255.146L130.57 254.854C130.313 254.008 130.074 253.206 129.853 252.448L128.893 252.727ZM127.591 283.037C128.501 270.903 129.1 262.91 129.872 252.625L128.874 252.55C128.103 262.835 127.504 270.829 126.593 282.963L127.591 283.037ZM129.872 252.625C130.093 249.669 130.329 246.524 130.591 243.037L129.593 242.963C129.332 246.45 129.096 249.594 128.874 252.55L129.872 252.625ZM130.514 242.732C129.951 241.848 129.315 240.983 128.738 240.444C128.459 240.185 128.135 239.942 127.794 239.862C127.61 239.818 127.398 239.816 127.191 239.909C126.984 240.002 126.839 240.163 126.741 240.342C126.558 240.677 126.496 241.153 126.5 241.722C126.505 242.31 126.584 243.075 126.746 244.043C127.072 245.981 127.745 248.787 128.893 252.727L129.853 252.448C128.71 248.522 128.049 245.759 127.733 243.877C127.574 242.936 127.504 242.228 127.5 241.714C127.496 241.18 127.564 240.921 127.618 240.822C127.639 240.784 127.639 240.804 127.6 240.821C127.561 240.839 127.539 240.829 127.563 240.835C127.639 240.853 127.804 240.941 128.055 241.176C128.538 241.626 129.12 242.403 129.67 243.268L130.514 242.732ZM126.692 283.3L129.692 287.3L130.492 286.7L127.492 282.7L126.692 283.3ZM128.874 252.55L126.593 282.963L127.591 283.037L129.872 252.625L128.874 252.55ZM153.883 238.546L147.383 241.546L147.802 242.454L154.302 239.454L153.883 238.546ZM195.585 254.915L190.585 225.915L189.599 226.085L194.599 255.085L195.585 254.915ZM190.092 226.5H195.092V225.5H190.092V226.5ZM194.599 226.083L199.099 252.671L200.085 252.504L195.585 225.917L194.599 226.083ZM199.356 252.147L194.856 254.559L195.328 255.441L199.828 253.028L199.356 252.147ZM171.59 254.953L169.09 228.453L168.094 228.547L170.594 255.047L171.59 254.953ZM168.592 229H175.092V228H168.592V229ZM174.595 228.552L177.095 252.639L178.089 252.536L175.589 228.448L174.595 228.552ZM177.418 252.119L170.918 254.531L171.266 255.469L177.766 253.056L177.418 252.119ZM141.69 211.51C140.313 211.234 139.447 210.585 138.914 209.736C138.371 208.87 138.145 207.748 138.155 206.491C138.175 203.973 139.143 201.098 140.043 199.216L139.141 198.784C138.208 200.735 137.176 203.761 137.155 206.484C137.144 207.848 137.386 209.182 138.067 210.267C138.758 211.369 139.872 212.166 141.494 212.49L141.69 211.51ZM139.592 199.5C141.511 199.5 142.881 199.959 143.854 200.663C144.826 201.367 145.444 202.347 145.804 203.466C146.531 205.726 146.182 208.488 145.614 210.354L146.57 210.646C147.169 208.678 147.57 205.69 146.756 203.159C146.345 201.882 145.619 200.706 144.44 199.853C143.261 199 141.673 198.5 139.592 198.5V199.5ZM173.494 227.01L168.494 228.01L168.69 228.99L173.69 227.99L173.494 227.01ZM190.19 225.51C189.483 225.368 188.893 225.165 188.404 224.916L187.949 225.806C188.533 226.104 189.212 226.334 189.994 226.49L190.19 225.51ZM190.25 225.526L188.335 224.887L188.018 225.835L189.934 226.474L190.25 225.526ZM130.55 243.202C132.83 238.034 137.739 230.872 145.254 225.454L144.669 224.643C136.995 230.175 131.979 237.485 129.635 242.798L130.55 243.202ZM144.468 225.126L147.098 242.077L148.086 241.923L145.456 224.972L144.468 225.126ZM154.58 238.889L150.662 221.714L149.688 221.936L153.605 239.111L154.58 238.889ZM147.105 210.611L149.688 221.936L150.662 221.714L148.08 210.389L147.105 210.611ZM145.456 224.972L143.586 212.923L142.598 213.077L144.468 225.126L145.456 224.972ZM149.943 221.382C148.064 222.364 146.306 223.464 144.669 224.643L145.254 225.454C146.854 224.301 148.572 223.227 150.407 222.268L149.943 221.382ZM143.643 212.122L142.849 212.563L143.335 213.437L144.128 212.996L143.643 212.122ZM147.349 210.063L145.609 211.03L146.095 211.904L147.835 210.937L147.349 210.063ZM145.36 211.375C145.251 211.957 145.239 212.378 145.239 212.664C145.239 212.82 145.242 212.888 145.239 212.943C145.237 212.967 145.236 212.954 145.244 212.926C145.253 212.895 145.282 212.813 145.367 212.74C145.545 212.587 145.735 212.66 145.662 212.642C145.626 212.634 145.558 212.61 145.411 212.555C145.137 212.451 144.699 212.28 144.029 212.08L143.743 213.038C144.375 213.227 144.783 213.386 145.058 213.49C145.186 213.538 145.318 213.588 145.429 213.615C145.501 213.632 145.783 213.701 146.019 213.499C146.132 213.401 146.182 213.283 146.205 213.204C146.227 213.126 146.234 213.053 146.237 213.002C146.242 212.908 146.239 212.772 146.239 212.663C146.239 212.419 146.249 212.063 146.343 211.559L145.36 211.375ZM145.614 210.354C145.497 210.738 145.416 211.076 145.36 211.375L146.343 211.559C146.392 211.298 146.464 210.995 146.57 210.646L145.614 210.354ZM144.128 212.996L146.095 211.904L145.609 211.03L143.643 212.122L144.128 212.996ZM182.223 218.517C179.326 217.735 176.812 217.277 174.143 217.003L174.041 217.997C176.655 218.266 179.116 218.714 181.962 219.483L182.223 218.517ZM173.619 217.663C174.772 221.009 173.915 224.95 173.118 227.342L174.066 227.658C174.88 225.219 175.829 221.009 174.565 217.337L173.619 217.663ZM168.411 212.966C171.181 214.043 172.891 215.547 173.619 217.663L174.565 217.337C173.708 214.849 171.708 213.175 168.773 212.034L168.411 212.966ZM165.535 217.731C166.931 215.055 168.366 214.159 169.612 214.248C170.909 214.34 172.332 215.504 173.662 217.754L174.523 217.246C173.16 214.939 171.503 213.38 169.683 213.25C167.813 213.117 166.093 214.499 164.649 217.269L165.535 217.731ZM165.562 217.671C165.912 216.71 166.508 215.849 167.157 215.042C167.482 214.637 167.811 214.258 168.129 213.883C168.443 213.512 168.747 213.146 169 212.789L168.184 212.211C167.959 212.529 167.68 212.866 167.367 213.236C167.057 213.6 166.713 213.997 166.377 214.415C165.705 215.251 165.029 216.214 164.622 217.329L165.562 217.671ZM185.848 219.634C188.94 219.847 192.43 220.325 195.998 221.158L196.225 220.184C192.601 219.338 189.058 218.852 185.916 218.636L185.848 219.634ZM196.609 220.617C196.281 217.605 194.654 213.911 190.425 210.127L189.759 210.873C193.835 214.52 195.318 217.998 195.615 220.725L196.609 220.617ZM189.69 210.202C188.041 212.429 186.043 215.872 185.392 219.034L186.372 219.236C186.98 216.279 188.882 212.974 190.494 210.798L189.69 210.202ZM188.404 224.916C187.319 224.362 186.701 223.565 186.401 222.616C186.096 221.65 186.112 220.495 186.372 219.236L185.392 219.034C185.113 220.389 185.073 221.731 185.448 222.918C185.828 224.122 186.626 225.131 187.949 225.806L188.404 224.916ZM195.615 220.725C195.862 223.001 195.286 224.774 194.671 225.73L195.513 226.27C196.259 225.109 196.879 223.105 196.609 220.617L195.615 220.725ZM223.592 248C223.592 239.534 220.013 233.325 214.792 228.864C209.585 224.415 202.756 221.709 196.225 220.184L195.998 221.158C202.441 222.663 209.102 225.317 214.142 229.624C219.167 233.917 222.592 239.858 222.592 248H223.592ZM185.916 218.636C184.559 218.543 183.275 218.5 182.092 218.5V219.5C183.252 219.5 184.512 219.542 185.848 219.634L185.916 218.636ZM141.494 212.49C142.349 212.661 143.023 212.83 143.552 212.982L143.828 212.021C143.271 211.861 142.571 211.686 141.69 211.51L141.494 212.49ZM144.01 212.886L146.412 210.884L145.772 210.116L143.37 212.118L144.01 212.886ZM144.029 212.08C143.964 212.061 143.897 212.041 143.828 212.021L143.552 212.982C143.618 213.001 143.681 213.02 143.743 213.038L144.029 212.08ZM143.37 212.118L142.772 212.616L143.412 213.384L144.01 212.886L143.37 212.118ZM129.614 255.146C130.616 258.438 132.28 261.317 134.406 263.823L135.169 263.177C133.121 260.763 131.529 258.004 130.57 254.854L129.614 255.146ZM130.325 255.442C132.196 254.458 133.392 254.285 134.122 254.489C134.793 254.677 135.209 255.23 135.401 256.163C135.594 257.105 135.53 258.33 135.305 259.626C135.083 260.913 134.709 262.229 134.316 263.332L135.258 263.668C135.666 262.521 136.056 261.15 136.291 259.796C136.524 258.452 136.611 257.083 136.38 255.962C136.148 254.832 135.564 253.854 134.392 253.526C133.279 253.215 131.788 253.542 129.859 254.558L130.325 255.442ZM134.406 263.823C136.745 266.581 139.642 268.887 142.834 270.807L143.35 269.95C140.23 268.074 137.423 265.834 135.169 263.177L134.406 263.823ZM135.004 263.95C136.602 263.181 137.84 263.021 138.793 263.206C139.737 263.389 140.467 263.924 141.031 264.679C142.182 266.218 142.592 268.608 142.592 270.378H143.592C143.592 268.522 143.172 265.873 141.832 264.08C141.15 263.168 140.218 262.464 138.983 262.224C137.756 261.986 136.295 262.219 134.57 263.05L135.004 263.95ZM142.834 270.807C145.098 272.168 147.514 273.336 149.988 274.333L150.362 273.406C147.928 272.425 145.562 271.28 143.35 269.95L142.834 270.807ZM143.39 270.78C144.522 269.94 145.438 269.612 146.162 269.577C146.872 269.542 147.45 269.786 147.931 270.204C148.928 271.071 149.491 272.676 149.68 273.943L150.67 273.796C150.467 272.44 149.852 270.548 148.587 269.449C147.937 268.884 147.113 268.529 146.113 268.578C145.127 268.626 144.025 269.065 142.794 269.976L143.39 270.78ZM149.988 274.333C153.923 275.919 158.014 277.074 161.898 277.887L162.102 276.908C158.265 276.105 154.232 274.965 150.362 273.406L149.988 274.333ZM161.898 277.887C166.875 278.927 171.522 279.406 175.079 279.5L175.105 278.5C171.609 278.408 167.021 277.936 162.102 276.908L161.898 277.887ZM150.565 274.183C151.782 272.668 152.948 271.949 154.006 271.719C155.059 271.49 156.082 271.73 157.05 272.282C159.016 273.403 160.651 275.752 161.55 277.615L162.45 277.18C161.516 275.244 159.769 272.681 157.545 271.413C156.419 270.771 155.145 270.448 153.793 270.742C152.446 271.034 151.098 271.923 149.785 273.556L150.565 274.183ZM175.092 279.5C175.943 279.5 176.781 279.489 177.605 279.469L177.579 278.469C176.764 278.49 175.935 278.5 175.092 278.5V279.5ZM162.35 277.755C165.877 274.303 169.047 273.899 171.562 274.683C174.129 275.482 176.124 277.552 177.167 279.233L178.017 278.705C176.894 276.896 174.729 274.621 171.86 273.728C168.939 272.818 165.397 273.373 161.65 277.04L162.35 277.755ZM177.605 279.469C181.445 279.372 184.988 279.054 188.253 278.549L188.1 277.561C184.88 278.058 181.38 278.373 177.579 278.469L177.605 279.469ZM178.066 279.129C178.625 277.478 179.364 276.509 180.147 275.981C180.923 275.458 181.8 275.329 182.722 275.469C184.602 275.756 186.573 277.159 187.823 278.409L188.53 277.702C187.221 276.392 185.063 274.815 182.873 274.481C181.758 274.311 180.615 274.46 179.588 275.152C178.568 275.84 177.723 277.024 177.118 278.809L178.066 279.129ZM188.253 278.549C191.889 277.987 195.18 277.195 198.156 276.22L197.844 275.27C194.924 276.226 191.686 277.007 188.1 277.561L188.253 278.549ZM188.628 278.271C190.314 274.74 192.169 273.801 193.685 273.84C195.27 273.882 196.738 274.989 197.613 276.061L198.387 275.429C197.428 274.252 195.714 272.893 193.711 272.84C191.638 272.786 189.498 274.127 187.725 277.84L188.628 278.271ZM198.5 275.745C198.5 273.64 198.828 272.207 199.319 271.258C199.802 270.324 200.447 269.85 201.141 269.645C201.853 269.436 202.667 269.496 203.486 269.732C204.303 269.967 205.089 270.368 205.721 270.793L206.279 269.963C205.578 269.492 204.697 269.041 203.764 268.771C202.833 268.503 201.813 268.405 200.859 268.686C199.886 268.973 199.031 269.639 198.431 270.798C197.839 271.941 197.5 273.552 197.5 275.745H198.5ZM206.497 270.431C206.889 266.761 208.164 265.422 209.386 265.04C210.674 264.639 212.184 265.197 213.215 265.911L213.785 265.089C212.65 264.303 210.809 263.549 209.089 264.086C207.302 264.643 205.911 266.493 205.503 270.325L206.497 270.431ZM214 265.5C214 261.352 214.909 259.222 215.918 258.202C216.904 257.205 218.064 257.192 218.829 257.47L219.171 256.53C218.102 256.142 216.512 256.179 215.207 257.498C213.925 258.795 213 261.248 213 265.5H214ZM198.156 276.22C216.212 270.304 222.553 257.706 223.478 249.556L222.484 249.444C221.603 257.212 215.521 269.478 197.844 275.27L198.156 276.22ZM223.478 249.556C223.539 249.023 223.576 248.509 223.592 248.016L222.592 247.984C222.577 248.449 222.542 248.936 222.484 249.444L223.478 249.556ZM219.426 256.738C218.659 255.492 218.385 254.487 218.398 253.69C218.411 252.902 218.705 252.271 219.165 251.759C220.111 250.706 221.765 250.156 223.043 249.996L222.919 249.004C221.537 249.177 219.6 249.778 218.421 251.091C217.818 251.762 217.416 252.619 217.398 253.673C217.381 254.717 217.741 255.908 218.574 257.262L219.426 256.738ZM157.378 219.847C156.072 219.967 154.712 220.091 153.441 220.312C152.172 220.532 150.956 220.853 149.943 221.382L150.407 222.268C151.286 221.809 152.385 221.51 153.612 221.297C154.837 221.085 156.155 220.964 157.469 220.843L157.378 219.847ZM168.826 228.058C166.736 226.952 165.587 225.373 165.108 223.612C164.625 221.835 164.814 219.834 165.482 217.896L164.537 217.57C163.823 219.642 163.594 221.854 164.143 223.874C164.697 225.909 166.03 227.709 168.358 228.942L168.826 228.058ZM165.472 217.924C165.509 217.833 165.542 217.739 165.571 217.643L164.613 217.357C164.594 217.421 164.572 217.482 164.547 217.542L165.472 217.924ZM164.622 217.329C164.593 217.409 164.565 217.489 164.537 217.57L165.482 217.896C165.508 217.821 165.535 217.746 165.562 217.671L164.622 217.329ZM164.547 217.542C164.229 218.312 163.407 218.829 162.085 219.183C160.776 219.534 159.133 219.686 157.378 219.847L157.469 220.843C159.197 220.685 160.935 220.527 162.343 220.149C163.738 219.775 164.967 219.146 165.472 217.924L164.547 217.542Z" fill="black"/>
<path d="M142.5 153.5C142.5 173.1 160.5 178.333 169.5 178.5C191.1 181.7 201.833 166.5 204.5 158.5L142.5 153.5Z" fill="white" stroke="black" stroke-width="2"/>
<circle cx="157" cy="115" r="6.5" fill="white" stroke="black"/>
<circle cx="195" cy="119" r="6.5" fill="white" stroke="black"/>
<circle cx="153.5" cy="112.5" r="3.5" fill="black"/>
<circle cx="191.5" cy="116.5" r="3.5" fill="black"/>
<path d="M139 94C136.2 70.4 148.833 79.1667 155.5 86.5C155.5 60.9 166.833 72.5 172.5 81.5C176.552 65.292 180.106 60.3867 183 61.2821C177.667 54.3547 165.6 46.1 160 68.5C156.333 63.1667 147 57.2 139 76C135.698 74.5849 130.16 74.2347 127.487 79.998C126.382 82.3804 125.766 85.8074 126 90.6357C129.071 89.9497 134.754 91.9619 139 94Z" fill="#8C6224"/>
<path d="M121.5 112C119.319 109.296 118.097 107.224 117.586 105.658C115.752 100.045 123.048 100.936 128 102.5L121.5 112Z" fill="#8C6224"/>
<path d="M128 102.5L139 94C134.754 91.9619 129.071 89.9497 126 90.6357C123.044 91.2959 122.507 94.4563 128 102.5Z" fill="#8C6224"/>
<path d="M139 94C136.2 70.4 148.833 79.1667 155.5 86.5L139 94Z" fill="#8C6224"/>
<path d="M172.5 81.5H190.5C189.288 72.92 186.677 62.4196 183 61.2821C180.106 60.3867 176.552 65.292 172.5 81.5Z" fill="#8C6224"/>
<path d="M183 61.2821C186.677 62.4196 189.288 72.92 190.5 81.5C195.356 75.3415 198.783 72.5376 201.149 71.9359C201.377 70.8416 201.577 69.6825 201.734 68.5C203.152 57.8194 201.006 45.2332 183 61.2821Z" fill="#8C6224"/>
<path d="M203.256 86.5L205.314 87.5466C206.428 79.8486 206.328 70.6192 201.149 71.9359C198.783 72.5376 195.356 75.3415 190.5 81.5L203.256 86.5Z" fill="#8C6224"/>
<path d="M201.734 68.5C201.577 69.6825 201.377 70.8416 201.149 71.9359C206.328 70.6192 206.428 79.8486 205.314 87.5466L205.516 87.6495C208.222 78.3422 213.475 65.9903 217.221 76C217.481 66.1667 214.747 50.9 201.734 68.5Z" fill="#8C6224"/>
<path d="M220.208 90.9299C220.198 88.5401 219.616 84.6408 218 78.5C217.749 77.5461 217.489 76.7159 217.221 76C213.475 65.9903 208.222 78.3422 205.516 87.6495L218 94C218.682 93.0228 219.428 91.9841 220.208 90.9299Z" fill="#8C6224"/>
<path d="M217.221 76C217.489 76.7159 217.749 77.5461 218 78.5C219.616 84.6408 220.198 88.5401 220.208 90.9299C224.705 84.859 230.379 78.2764 231.928 79.998C231.826 71.633 228.792 64.2892 217.221 76Z" fill="#8C6224"/>
<path d="M227.011 98.4764C225.457 100.883 224.5 100.5 224.5 100.5L231.5 108C232.304 107.258 233.236 106.444 234.206 105.658C235.242 103.954 236.639 101.355 238.5 97.5C243.477 87.1905 234.078 92.9682 227.011 98.4764Z" fill="#8C6224"/>
<path d="M241.5 102.073C243.667 93.3823 244.7 78.1 231.5 86.5C229.759 93.1138 228.208 96.6226 227.011 98.4764C234.078 92.9682 243.477 87.1905 238.5 97.5C236.639 101.355 235.242 103.954 234.206 105.658C237.107 103.309 240.346 101.215 241.5 102.073Z" fill="#8C6224"/>
<path d="M243.145 108.411C244.745 108.263 246.413 109.222 248 112C248.523 112.915 248.904 113.779 249.163 114.594C253.387 105.381 256.536 92.8511 241.5 102.073C242.041 102.475 242.124 103.525 241.5 105.5L243.145 108.411Z" fill="#8C6224"/>
<path d="M239.74 110.295C237.93 114.521 236.257 116.495 235.5 117L241.5 125.5C245.213 124.609 251.281 121.257 249.163 114.594C248.78 115.429 248.388 116.238 248 117L243.145 108.411C241.952 108.521 240.796 109.248 239.74 110.295Z" fill="#8C6224"/>
<path d="M172.5 81.5C166.833 72.5 155.5 60.9 155.5 86.5L172.5 83.5V81.5Z" fill="#8C6224"/>
<path d="M220.208 90.9299C220.223 94.4553 218.993 94.6953 218 94L224.5 100.5C225.279 99.8511 226.127 99.1658 227.011 98.4764C228.208 96.6226 229.759 93.1138 231.5 86.5C231.778 84.4823 231.955 82.2046 231.928 79.998C230.379 78.2764 224.705 84.859 220.208 90.9299Z" fill="#8C6224"/>
<path d="M241.5 105.5C242.124 103.525 242.041 102.475 241.5 102.073C240.346 101.215 237.107 103.309 234.206 105.658C232.826 107.928 232.086 108.609 231.745 108.55L235.5 117C236.415 114.817 237.932 112.087 239.74 110.295C240.321 108.937 240.916 107.348 241.5 105.5Z" fill="#8C6224"/>
<path d="M128 102.5C122.507 94.4563 123.044 91.2959 126 90.6357C125.766 85.8074 126.382 82.3804 127.487 79.998C120.325 79.4987 108.317 83.9317 117.586 105.658C115.752 100.045 123.048 100.936 128 102.5Z" fill="#8C6224"/>
<path d="M121.5 112L120.722 112.628L121.566 113.675L122.325 112.565L121.5 112ZM205 89.5L204.015 89.3262L205.966 89.7577L205 89.5ZM218 78.5L217.033 78.7545L218 78.5ZM238.5 97.5L237.599 97.0653L238.5 97.5ZM241.5 105.5L240.546 105.199L241.5 105.5ZM235.5 117L234.586 117.406L234.626 117.496L234.683 117.577L235.5 117ZM248 112L247.132 112.496L248 112ZM241.5 125.5L240.683 126.077L241.074 126.631L241.733 126.472L241.5 125.5ZM203.256 86.5L203.71 85.6087L203.666 85.5867L203.621 85.569L203.256 86.5ZM172.5 83.5L172.674 84.4848L173.5 84.339V83.5H172.5ZM139 76L138.606 76.9191L139.528 77.3141L139.92 76.3916L139 76ZM160 68.5L159.176 69.0665L160.432 70.8939L160.97 68.7425L160 68.5ZM248 117L247.129 117.492L248.046 119.114L248.891 117.454L248 117ZM127.487 79.998L128.394 80.4188L127.487 79.998ZM139.993 93.8822C139.298 88.0222 139.588 84.343 140.396 82.1922C140.792 81.1359 141.293 80.5042 141.81 80.1387C142.319 79.7783 142.928 79.6174 143.657 79.6491C145.177 79.7152 147.096 80.617 149.134 82.0731C151.14 83.5055 153.127 85.3762 154.76 87.1727L156.24 85.8273C154.54 83.9571 152.448 81.982 150.297 80.4456C148.179 78.933 145.864 77.7432 143.743 77.6509C142.652 77.6035 141.587 77.8467 140.655 78.5059C139.73 79.1598 139.021 80.1631 138.523 81.489C137.541 84.1028 137.302 88.1778 138.007 94.1178L139.993 93.8822ZM156.5 86.5C156.5 80.1314 157.212 76.2481 158.259 74.0897C158.775 73.0273 159.335 72.4578 159.86 72.175C160.369 71.9001 160.952 71.8368 161.648 71.9989C163.117 72.3412 164.894 73.6461 166.729 75.5739C168.53 77.4658 170.261 79.8212 171.654 82.0328L173.346 80.9672C171.905 78.6788 170.095 76.2092 168.177 74.1949C166.294 72.2164 164.174 70.5338 162.102 70.0511C161.027 69.8007 159.928 69.8655 158.91 70.4149C157.907 70.9562 157.095 71.9071 156.46 73.2165C155.205 75.8019 154.5 80.0686 154.5 86.5H156.5ZM242.317 124.923L236.317 116.423L234.683 117.577L240.683 126.077L242.317 124.923ZM232.231 107.318L225.231 99.8177L223.769 101.182L230.769 108.682L232.231 107.318ZM203.621 85.569L190.865 80.569L190.135 82.431L202.891 87.431L203.621 85.569ZM172.326 82.5152L155.326 85.5152L155.674 87.4848L172.674 84.4848L172.326 82.5152ZM172.5 82.5H190.5V80.5H172.5V82.5ZM155.086 85.5896L138.586 93.0896L139.414 94.9104L155.914 87.4104L155.086 85.5896ZM127.175 101.935L120.675 111.435L122.325 112.565L128.825 103.065L127.175 101.935ZM128.611 103.291L139.611 94.7913L138.389 93.2087L127.389 101.709L128.611 103.291ZM128.826 101.936C126.091 97.9309 124.983 95.31 124.827 93.7021C124.751 92.9299 124.905 92.4911 125.097 92.231C125.292 91.9677 125.633 91.7423 126.218 91.6116L125.782 89.6597C124.889 89.8592 124.054 90.2765 123.488 91.0427C122.92 91.8122 122.728 92.79 122.836 93.896C123.045 96.0442 124.416 99.0253 127.174 103.064L128.826 101.936ZM126.218 91.6116C127.491 91.3273 129.47 91.5916 131.783 92.2573C134.051 92.9099 136.479 93.8993 138.567 94.9015L139.433 93.0985C137.275 92.0626 134.739 91.0269 132.336 90.3353C129.979 89.6569 127.58 89.2581 125.782 89.6597L126.218 91.6116ZM139.92 76.3916C143.883 67.0799 147.987 64.3599 151.175 64.1987C154.444 64.0335 157.413 66.5017 159.176 69.0665L160.824 67.9335C158.921 65.165 155.389 61.9832 151.075 62.2013C146.68 62.4234 142.117 66.1201 138.08 75.6084L139.92 76.3916ZM173.47 81.7425C175.491 73.6598 177.367 68.4866 179.057 65.4655C179.904 63.9507 180.662 63.0567 181.298 62.5915C181.898 62.1532 182.339 62.1244 182.704 62.2374L183.296 60.3267C182.214 59.9921 181.125 60.2407 180.118 60.9768C179.148 61.686 178.221 62.8635 177.312 64.4891C175.488 67.7487 173.561 73.1322 171.53 81.2575L173.47 81.7425ZM182.704 62.2374C183.265 62.4107 183.953 63.014 184.699 64.2356C185.423 65.4216 186.104 67.0282 186.724 68.9127C187.963 72.6754 188.908 77.3818 189.51 81.6399L191.49 81.3601C190.879 77.0382 189.913 72.2044 188.624 68.2874C187.98 66.3322 187.243 64.5641 186.406 63.1932C185.59 61.858 184.574 60.7222 183.296 60.3267L182.704 62.2374ZM160.97 68.7425C162.351 63.22 164.103 59.7092 165.956 57.6099C167.779 55.5449 169.701 54.8376 171.57 54.8928C173.491 54.9496 175.484 55.8173 177.365 57.1527C179.236 58.4818 180.921 60.2214 182.208 61.8921L183.792 60.672C182.412 58.879 180.589 56.9891 178.523 55.5221C176.466 54.0614 174.092 52.9665 171.63 52.8937C169.115 52.8194 166.638 53.8154 164.457 56.2862C162.306 58.7227 160.449 62.5801 159.03 68.2575L160.97 68.7425ZM191.285 82.1192C193.692 79.0669 195.721 76.8769 197.418 75.3854C199.13 73.8812 200.436 73.1489 201.395 72.9051L200.903 70.9668C199.495 71.3246 197.905 72.2951 196.098 73.8829C194.277 75.4834 192.164 77.7746 189.715 80.8808L191.285 82.1192ZM183.665 62.0286C188.131 58.0485 191.521 55.9314 194.041 55.0853C196.518 54.2541 198.005 54.6843 198.963 55.593C200.01 56.5862 200.67 58.3682 200.944 60.7251C201.214 63.0459 201.091 65.7463 200.743 68.3684L202.726 68.6316C203.086 65.9134 203.227 63.0353 202.931 60.4938C202.639 57.9884 201.902 55.6243 200.339 54.1419C198.688 52.5752 196.351 52.2004 193.405 53.1893C190.503 54.1633 186.872 56.4912 182.335 60.5355L183.665 62.0286ZM200.743 68.3684C200.589 69.5256 200.393 70.6607 200.17 71.7323L202.128 72.1396C202.36 71.0225 202.565 69.8394 202.726 68.6316L200.743 68.3684ZM216.284 76.3505C216.538 77.0287 216.789 77.826 217.033 78.7545L218.967 78.2455C218.709 77.2662 218.439 76.403 218.157 75.6495L216.284 76.3505ZM202.538 69.0945C205.77 64.7235 208.249 62.5637 210.073 61.7836C210.958 61.4052 211.637 61.3737 212.167 61.513C212.7 61.6533 213.203 61.9983 213.674 62.5873C214.647 63.8037 215.338 65.8723 215.754 68.3691C216.164 70.8296 216.285 73.5612 216.221 75.9736L218.22 76.0264C218.287 73.5221 218.163 70.6579 217.727 68.0403C217.297 65.4589 216.54 62.9671 215.235 61.3377C214.568 60.5038 213.724 59.8545 212.676 59.5788C211.624 59.3021 210.484 59.4328 209.287 59.9446C206.948 60.9447 204.205 63.4765 200.93 67.9055L202.538 69.0945ZM240.903 102.876C240.822 102.816 240.929 102.81 240.937 103.216C240.944 103.618 240.844 104.255 240.546 105.199L242.454 105.801C242.779 104.77 242.95 103.895 242.936 103.178C242.923 102.465 242.718 101.733 242.097 101.271L240.903 102.876ZM232.037 87.3437C235.277 85.2819 237.394 84.8461 238.717 85.1431C239.938 85.4172 240.792 86.4019 241.302 88.1566C241.814 89.9165 241.902 92.2401 241.711 94.7151C241.521 97.1733 241.06 99.7023 240.53 101.832L242.47 102.315C243.023 100.099 243.504 97.4585 243.705 94.8694C243.904 92.2971 243.832 89.6956 243.223 87.5985C242.612 85.4963 241.385 83.6922 239.155 83.1917C237.027 82.7142 234.323 83.5181 230.963 85.6563L232.037 87.3437ZM202.803 87.3913L204.86 88.4379L205.767 86.6553L203.71 85.6087L202.803 87.3913ZM206.303 87.6899C206.865 83.8102 207.137 79.4536 206.577 76.1915C206.299 74.5752 205.794 73.079 204.885 72.0682C204.416 71.5472 203.835 71.1507 203.135 70.9512C202.438 70.7527 201.687 70.7673 200.903 70.9668L201.395 72.9051C201.906 72.7754 202.291 72.7904 202.586 72.8746C202.879 72.9579 203.146 73.1266 203.398 73.406C203.929 73.9959 204.35 75.0413 204.606 76.53C205.112 79.4779 204.877 83.585 204.324 87.4033L206.303 87.6899ZM204.324 87.4033C204.229 88.0581 204.125 88.7017 204.015 89.3262L205.985 89.6738C206.099 89.0293 206.206 88.3655 206.303 87.6899L204.324 87.4033ZM204.86 88.438L205.062 88.5408L205.969 86.7582L205.767 86.6553L204.86 88.438ZM206.476 87.9286C207.828 83.2795 209.78 78.0091 211.795 75.1579C212.293 74.4534 212.76 73.9477 213.18 73.6368C213.597 73.3274 213.893 73.264 214.094 73.2838C214.287 73.3027 214.591 73.4171 214.989 73.8894C215.393 74.3696 215.836 75.154 216.284 76.3505L218.157 75.6495C217.669 74.3436 217.128 73.3244 216.518 72.6005C215.901 71.8688 215.158 71.3786 214.29 71.2933C213.43 71.2089 212.648 71.5416 211.989 72.0295C211.333 72.5157 210.723 73.2083 210.161 74.0038C207.936 77.153 205.91 82.7122 204.556 87.3704L206.476 87.9286ZM218.453 93.1087L205.969 86.7582L205.062 88.5408L217.547 94.8913L218.453 93.1087ZM205.966 89.7577C206.124 89.1675 206.294 88.5551 206.476 87.9286L204.556 87.3704C204.369 88.0111 204.195 88.6378 204.034 89.2423L205.966 89.7577ZM221.208 90.9256C221.198 88.4075 220.589 84.4104 218.967 78.2455L217.033 78.7545C218.643 84.8712 219.199 88.6727 219.208 90.9341L221.208 90.9256ZM218.82 94.5724C219.497 93.6027 220.237 92.5715 221.012 91.5251L219.405 90.3346C218.618 91.3966 217.867 92.443 217.18 93.4276L218.82 94.5724ZM219.208 90.9341C219.212 91.7645 219.141 92.3501 219.04 92.7487C218.937 93.1555 218.82 93.2971 218.789 93.3273C218.778 93.3378 218.785 93.3283 218.809 93.3198C218.833 93.3115 218.848 93.3127 218.845 93.3125C218.827 93.3111 218.733 93.2923 218.573 93.1808L217.427 94.8192C217.764 95.0554 218.196 95.2674 218.687 95.3063C219.217 95.3482 219.747 95.1806 220.176 94.7681C220.574 94.3845 220.824 93.8486 220.979 93.2406C221.135 92.6244 221.212 91.8579 221.208 90.9256L219.208 90.9341ZM221.012 91.5251C223.251 88.5024 225.76 85.3845 227.883 83.2464C228.954 82.1677 229.873 81.3948 230.573 80.9937C230.927 80.7909 231.146 80.7297 231.251 80.7207C231.309 80.7156 231.238 80.7254 231.185 80.667L232.672 79.3289C232.232 78.8402 231.644 78.679 231.078 78.7282C230.558 78.7733 230.045 78.9914 229.579 79.2584C228.639 79.7971 227.567 80.7265 226.464 81.8371C224.239 84.0777 221.663 87.2865 219.405 90.3346L221.012 91.5251ZM232.928 79.9858C232.902 77.8469 232.689 75.7224 232.176 73.9232C231.67 72.148 230.826 70.5303 229.414 69.628C227.939 68.685 226.1 68.6771 223.989 69.5901C221.905 70.4918 219.439 72.3321 216.51 75.2972L217.932 76.7029C220.788 73.8125 223.041 72.1792 224.783 71.4257C226.499 70.6833 227.594 70.8384 228.337 71.3131C229.143 71.8285 229.8 72.8833 230.253 74.4717C230.699 76.0362 230.904 77.9665 230.929 80.0102L232.928 79.9858ZM231.185 80.667C231.176 80.6571 231.234 80.7179 231.281 80.9558C231.327 81.1888 231.351 81.5313 231.324 82.0121C231.272 82.9749 231.03 84.3551 230.533 86.2455L232.467 86.7545C232.979 84.8095 233.258 83.2797 233.321 82.1207C233.353 81.5407 233.332 81.0195 233.244 80.5687C233.156 80.1229 232.988 79.6798 232.672 79.3289L231.185 80.667ZM230.929 80.0102C230.955 82.1588 230.782 84.3861 230.509 86.3634L232.491 86.6366C232.774 84.5785 232.956 82.2504 232.928 79.9858L230.929 80.0102ZM226.171 97.9339C225.449 99.0527 224.947 99.3914 224.745 99.4867C224.651 99.5314 224.623 99.5229 224.659 99.5223C224.675 99.5221 224.701 99.5235 224.738 99.5307C224.756 99.5343 224.776 99.5392 224.798 99.5459C224.81 99.5492 224.821 99.553 224.833 99.5573C224.839 99.5594 224.846 99.5616 224.852 99.564C224.855 99.5652 224.858 99.5664 224.862 99.5677C224.863 99.5683 224.865 99.5689 224.866 99.5696C224.867 99.5699 224.869 99.5704 224.869 99.5705C224.87 99.571 224.871 99.5715 224.5 100.5C224.129 101.428 224.13 101.429 224.131 101.429C224.132 101.43 224.133 101.43 224.134 101.43C224.135 101.431 224.137 101.432 224.139 101.432C224.142 101.434 224.146 101.435 224.149 101.437C224.157 101.439 224.164 101.442 224.172 101.445C224.188 101.45 224.205 101.456 224.224 101.462C224.261 101.473 224.303 101.483 224.35 101.493C224.445 101.512 224.559 101.524 224.689 101.522C224.953 101.518 225.261 101.455 225.601 101.295C226.266 100.98 227.02 100.307 227.851 99.0189L226.171 97.9339ZM232.178 108.735C232.968 108.006 233.883 107.206 234.835 106.436L233.576 104.881C232.588 105.682 231.64 106.51 230.822 107.265L232.178 108.735ZM235.06 106.178C236.12 104.435 237.533 101.803 239.401 97.9348L237.599 97.0653C235.745 100.906 234.364 103.474 233.351 105.139L235.06 106.178ZM239.401 97.9348C240.038 96.6146 240.466 95.5093 240.695 94.5998C240.916 93.7183 240.986 92.8851 240.741 92.1943C240.611 91.8281 240.393 91.5047 240.079 91.26C239.77 91.0192 239.417 90.8928 239.071 90.8382C238.408 90.7337 237.67 90.8769 236.964 91.1051C235.531 91.5687 233.76 92.5439 231.947 93.7091C230.117 94.8855 228.179 96.2985 226.397 97.6877L227.626 99.2651C229.377 97.9001 231.264 96.5254 233.028 95.3915C234.81 94.2463 236.403 93.3887 237.58 93.008C238.18 92.8141 238.559 92.7822 238.76 92.8138C238.845 92.8273 238.861 92.8467 238.849 92.8374C238.832 92.8243 238.84 92.8181 238.856 92.863C238.902 92.9943 238.945 93.3581 238.755 94.1124C238.573 94.8387 238.206 95.808 237.599 97.0653L239.401 97.9348ZM234.835 106.436C236.267 105.276 237.746 104.21 238.983 103.543C239.605 103.208 240.115 103.001 240.496 102.918C240.905 102.828 240.963 102.92 240.903 102.876L242.097 101.271C241.46 100.797 240.68 100.83 240.067 100.964C239.425 101.105 238.728 101.409 238.033 101.783C236.636 102.536 235.045 103.692 233.576 104.881L234.835 106.436ZM225.14 101.268C225.911 100.626 226.75 99.9477 227.626 99.2651L226.397 97.6877C225.503 98.384 224.647 99.0761 223.86 99.7318L225.14 101.268ZM230.533 86.2455C228.802 92.8217 227.284 96.2114 226.171 97.9339L227.851 99.0189C229.133 97.0339 230.717 93.4059 232.467 86.7545L230.533 86.2455ZM243.237 109.407C244.264 109.312 245.627 109.863 247.132 112.496L248.868 111.504C247.198 108.581 245.226 107.214 243.053 107.415L243.237 109.407ZM247.132 112.496C247.624 113.358 247.975 114.158 248.21 114.897L250.116 114.291C249.833 113.401 249.422 112.472 248.868 111.504L247.132 112.496ZM250.072 115.011C251.142 112.677 252.152 110.116 252.825 107.725C253.488 105.368 253.863 103.043 253.538 101.243C253.373 100.326 253.011 99.4621 252.33 98.8237C251.636 98.1725 250.718 97.857 249.647 97.8437C247.589 97.8181 244.756 98.9031 240.977 101.221L242.023 102.926C245.762 100.633 248.174 99.8255 249.622 99.8435C250.305 99.852 250.706 100.042 250.962 100.283C251.232 100.536 251.453 100.95 251.57 101.598C251.81 102.93 251.545 104.888 250.9 107.183C250.264 109.444 249.296 111.904 248.254 114.177L250.072 115.011ZM240.629 105.992L242.275 108.903L244.016 107.919L242.371 105.008L240.629 105.992ZM248.254 114.177C247.877 115 247.491 115.796 247.109 116.546L248.891 117.454C249.285 116.679 249.683 115.859 250.072 115.011L248.254 114.177ZM248.21 114.897C249.146 117.842 248.287 119.971 246.798 121.518C245.254 123.121 243.003 124.111 241.267 124.528L241.733 126.472C243.71 125.998 246.349 124.866 248.238 122.905C250.182 120.887 251.298 118.008 250.116 114.291L248.21 114.897ZM248.871 116.508L244.016 107.919L242.275 108.903L247.129 117.492L248.871 116.508ZM238.821 109.901C237.937 111.965 237.096 113.457 236.399 114.48C235.684 115.529 235.164 116.022 234.945 116.168L236.055 117.832C236.593 117.473 237.288 116.727 238.052 115.606C238.833 114.459 239.733 112.85 240.659 110.688L238.821 109.901ZM243.053 107.415C241.525 107.557 240.163 108.467 239.036 109.585L240.444 111.005C241.429 110.029 242.378 109.486 243.237 109.407L243.053 107.415ZM236.422 117.387C237.314 115.261 238.768 112.666 240.444 111.005L239.036 109.585C237.095 111.508 235.517 114.373 234.578 116.613L236.422 117.387ZM240.546 105.199C239.972 107.018 239.388 108.576 238.821 109.901L240.659 110.688C241.254 109.299 241.861 107.678 242.454 105.801L240.546 105.199ZM173.5 83.5V81.5H171.5V83.5H173.5ZM217.293 94.7071L223.793 101.207L225.207 99.7929L218.707 93.2929L217.293 94.7071ZM233.351 105.139C232.673 106.254 232.18 106.931 231.841 107.31C231.669 107.502 231.568 107.582 231.531 107.606C231.471 107.646 231.628 107.516 231.913 107.565L231.576 109.536C232.033 109.614 232.41 109.421 232.628 109.279C232.869 109.121 233.102 108.9 233.331 108.645C233.791 108.13 234.358 107.332 235.06 106.178L233.351 105.139ZM230.831 108.957L234.586 117.406L236.414 116.594L232.658 108.144L230.831 108.957ZM232.658 108.144L232.414 107.594L230.586 108.406L230.831 108.957L232.658 108.144ZM231.913 107.565C232.074 107.592 232.216 107.669 232.322 107.769C232.419 107.862 232.464 107.953 232.483 107.998C232.514 108.074 232.5 108.092 232.5 108H230.5C230.5 108.208 230.522 108.486 230.632 108.755C230.749 109.043 231.032 109.443 231.576 109.536L231.913 107.565ZM122.278 111.372C120.124 108.701 118.992 106.742 118.537 105.348L116.635 105.969C117.203 107.706 118.514 109.89 120.722 112.628L122.278 111.372ZM118.537 105.348C118.131 104.105 118.312 103.489 118.547 103.171C118.812 102.813 119.375 102.508 120.375 102.38C122.366 102.125 125.257 102.683 127.699 103.454L128.301 101.546C125.791 100.754 122.557 100.084 120.121 100.396C118.908 100.551 117.682 100.977 116.939 101.983C116.167 103.027 116.124 104.405 116.635 105.969L118.537 105.348ZM126.999 90.5873C126.769 85.8539 127.38 82.604 128.394 80.4188L126.58 79.5772C125.383 82.1567 124.763 85.7609 125.001 90.6841L126.999 90.5873ZM128.394 80.4188C129.599 77.8223 131.393 76.6753 133.217 76.285C135.094 75.8834 137.09 76.2695 138.606 76.9191L139.394 75.0809C137.608 74.3155 135.184 73.819 132.799 74.3293C130.36 74.8509 128.049 76.4104 126.58 79.5772L128.394 80.4188ZM118.506 105.266C113.921 94.5192 114.757 88.4149 117.183 85.082C119.635 81.7148 124.007 80.7578 127.417 80.9956L127.556 79.0004C123.805 78.7389 118.592 79.7487 115.566 83.9049C112.516 88.0953 111.982 95.0709 116.666 106.051L118.506 105.266Z" fill="#BE7AF3"/>
<path d="M116 132C116 133.461 115.554 134.746 114.882 135.643C114.21 136.539 113.357 137 112.5 137C111.643 137 110.79 136.539 110.118 135.643C109.446 134.746 109 133.461 109 132C109 130.539 109.446 129.254 110.118 128.357C110.79 127.461 111.643 127 112.5 127C113.357 127 114.21 127.461 114.882 128.357C115.554 129.254 116 130.539 116 132Z" stroke="#FBFF48" stroke-width="2"/>
<path d="M248 146C248 147.461 247.554 148.746 246.882 149.643C246.21 150.539 245.357 151 244.5 151C243.643 151 242.79 150.539 242.118 149.643C241.446 148.746 241 147.461 241 146C241 144.539 241.446 143.254 242.118 142.357C242.79 141.461 243.643 141 244.5 141C245.357 141 246.21 141.461 246.882 142.357C247.554 143.254 248 144.539 248 146Z" stroke="#FBFF48" stroke-width="2"/>
</svg>
