<svg width="264" height="306" viewBox="0 0 264 306" fill="none" xmlns="http://www.w3.org/2000/svg">
<path opacity="0.1" d="M132 305.16C168.476 305.16 198.046 301.619 198.046 297.25C198.046 292.882 168.476 289.34 132 289.34C95.5238 289.34 65.9541 292.882 65.9541 297.25C65.9541 301.619 95.5238 305.16 132 305.16Z" fill="white"/>
<path d="M132 298.688C204.6 298.688 263.455 232.024 263.455 149.79C263.455 67.5554 204.6 0.89138 132 0.89138C59.3997 0.89138 0.545425 67.5554 0.545425 149.79C0.545425 232.024 59.3997 298.688 132 298.688Z" fill="#DDA7FF"/>
<path opacity="0.1" d="M241.23 149.783C241.23 218.115 192.321 273.508 132 273.508C128.538 273.508 125.109 273.331 121.739 272.97C67.4285 267.226 24.6598 216.457 22.8398 153.956C22.7966 152.565 22.775 151.174 22.775 149.783C22.775 146.659 22.8776 143.56 23.0828 140.485C27.2792 76.5028 74.4441 26.0891 132.005 26.0891C181.692 26.0891 223.624 63.6623 236.872 115.085C237.104 116.009 237.336 116.921 237.558 117.869C238.368 121.335 239.052 124.861 239.61 128.446C240.689 135.493 241.231 142.631 241.23 149.783V149.783Z" fill="white"/>
<path opacity="0.4" d="M241.23 149.783C241.23 218.115 192.321 273.508 132 273.508C72.9102 273.508 24.7732 220.348 22.8344 153.956C35.2885 154.359 47.9749 153.894 59.7432 149.3C72.4998 144.327 83.4201 134.808 95.1668 127.277C126.723 107.12 164.383 101.694 200.433 105.683C212.677 107.035 225.374 109.849 236.867 115.024C239.769 126.307 241.238 138.001 241.23 149.753V149.783Z" fill="#585EC7"/>
<path opacity="0.4" d="M241.23 149.783C241.23 218.115 192.321 273.508 132 273.508C128.538 273.508 125.109 273.331 121.739 272.97C104.026 263.061 89.018 247.898 78.3111 229.093C67.6043 210.289 61.5997 188.548 60.9368 166.184C73.3909 166.588 86.0773 166.123 97.8456 161.529C110.608 156.555 121.523 147.037 133.269 139.506C164.54 119.527 201.799 114.027 237.553 117.808C238.363 121.274 239.047 124.8 239.605 128.385C240.689 135.451 241.232 142.611 241.23 149.783Z" fill="#585EC7"/>
<path d="M241.23 149.783C241.23 218.115 192.321 273.508 132 273.508C71.6789 273.508 22.7696 218.115 22.7696 149.783C22.7696 146.659 22.8722 143.56 23.0774 140.485C31.6914 141.677 40.0986 144.327 48.0181 148.346C60.8287 154.861 72.2243 164.863 85.548 169.885C95.2694 173.556 105.606 174.431 115.836 174.779C128.608 175.238 141.651 174.871 153.733 170.154C166.489 165.181 177.404 155.662 189.156 148.162C204.781 138.179 221.917 131.81 239.605 128.409C240.687 135.468 241.231 142.619 241.23 149.783Z" fill="#585EC7"/>
<path opacity="0.6" d="M115.258 213.986C127.544 211.417 127.598 191.131 127.598 191.131C127.058 194.031 125.8 194.312 119.4 196.637C113 198.961 109.139 206.455 109.139 206.455C90.0144 181.759 73.5745 208.651 73.5745 208.651C76.319 213.323 80.3385 216.849 85.0188 218.69C84.2627 220.782 83.4633 223.7 84.4031 224.771C85.4832 225.994 88.4375 222.232 90.0253 219.975C90.5005 220.036 90.9758 220.091 91.4511 220.128C92.3638 222.202 94.6267 227.652 94.6213 230.888C94.6213 230.888 99.8384 230.436 99.1795 219.663C102.487 219.051 105.712 217.964 108.777 216.427C108.777 216.427 108.237 233.231 112.557 234.112C116.878 234.993 121.112 240.951 121.112 240.951C127.528 226.777 115.258 213.986 115.258 213.986Z" fill="#FF8A00"/>
<path opacity="0.6" d="M191.722 182.181C203.971 184.959 210.662 166.141 210.662 166.141C209.231 168.588 207.962 168.338 201.249 167.787C194.535 167.236 188.508 172.571 188.508 172.571C178.835 141.629 154.759 159.724 154.759 159.724C155.779 165.217 158.359 170.18 162.104 173.855C160.716 175.483 159.02 177.856 159.544 179.239C160.149 180.86 164.118 178.578 166.333 177.147C166.754 177.41 167.181 177.654 167.607 177.887C167.775 180.199 168.093 186.213 167.029 189.216C167.029 189.216 172.025 190.984 174.936 180.701C178.191 181.52 181.525 181.866 184.857 181.729C184.857 181.729 178.841 197.102 182.589 199.751C186.337 202.399 188.292 209.691 188.292 209.691C198.905 199.2 191.722 182.181 191.722 182.181Z" fill="#FF8A00"/>
</svg>
