<svg width="599" height="582" viewBox="0 0 599 582" fill="none" xmlns="http://www.w3.org/2000/svg">
<rect width="599" height="582" fill="#F5F5F5"/>
<ellipse cx="299.5" cy="291" rx="299.5" ry="291" fill="#00FFE0"/>
<path d="M344.558 233.023C299.376 180.946 255.702 155.914 215.528 147.794C175.084 139.62 138.316 148.614 107.306 164.196C76.3054 179.774 51.0267 201.951 33.5081 220.214C24.7458 229.349 17.9172 237.512 13.2774 243.394C10.9574 246.336 9.1841 248.707 7.98954 250.345C7.39224 251.165 6.93959 251.8 6.63555 252.232C6.48354 252.448 6.36867 252.614 6.29146 252.725C6.25285 252.781 6.22366 252.823 6.20394 252.852L6.18147 252.885L6.17558 252.894C6.17413 252.896 6.17326 252.897 7 253.46L6.17326 252.897L5.79796 253.448L6.16304 254.007C32.151 293.751 70.1255 323.818 114.358 339.69C110.882 348.439 107.362 358.778 105.725 368.129C104.877 372.977 104.526 377.605 104.971 381.631C105.416 385.653 106.667 389.167 109.111 391.668L109.113 391.67C112.114 394.724 116.324 394.507 120.767 392.607C125.228 390.699 130.265 386.976 135.379 382.392C145.471 373.345 156.124 360.702 163.655 351.113C167.798 351.588 171.95 352.016 176.107 352.317C180.47 361.247 187.827 376.977 194.136 393.889C200.582 411.167 205.881 429.546 205.856 443.153L205.854 444.236L206.934 444.152L206.856 443.155C206.934 444.152 206.935 444.152 206.936 444.152L206.94 444.152L206.95 444.151L206.984 444.148C207.013 444.145 207.053 444.141 207.105 444.135C207.209 444.124 207.358 444.106 207.55 444.08C207.933 444.026 208.485 443.936 209.18 443.788C210.571 443.493 212.536 442.967 214.867 442.046C219.531 440.201 225.659 436.769 231.576 430.418C243.349 417.783 254.135 393.768 251.197 348.231C281.855 343.063 311.762 334.034 340.226 321.353C340.226 321.36 340.226 321.367 340.226 321.374C340.198 322.429 340.163 323.976 340.133 325.947C340.072 329.889 340.032 335.528 340.113 342.316C340.273 355.891 340.915 374.078 342.842 392.508C344.768 410.925 347.984 429.644 353.315 444.256C355.98 451.561 359.192 457.891 363.075 462.648C366.964 467.413 371.565 470.646 376.992 471.64C397.22 475.345 417.355 489.769 432.507 503.39C440.065 510.184 446.348 516.747 450.742 521.611C452.938 524.042 454.661 526.048 455.834 527.444C456.42 528.143 456.869 528.688 457.17 529.059C457.321 529.244 457.435 529.385 457.511 529.48L457.596 529.586L457.617 529.612L457.622 529.619L457.623 529.62C457.623 529.62 457.623 529.62 457.795 529.485L457.623 529.62L458.595 530.849L459.3 529.45C489.959 468.606 475.946 410.743 454.35 368.188C443.551 346.908 430.845 329.429 420.841 317.27C415.837 311.189 411.508 306.436 408.426 303.201C406.928 301.628 405.724 300.414 404.882 299.58C462.516 287.832 491.52 239.192 506.112 193.568C513.494 170.486 517.215 148.102 519.091 131.493C520.029 123.187 520.506 116.321 520.749 111.529C520.87 109.133 520.933 107.255 520.965 105.974C520.982 105.334 520.99 104.843 520.995 104.511C520.997 104.345 520.998 104.219 520.999 104.134L521 104.037L521 104.012L521 104.006C521 104.004 521 104.003 520 104L521 104.003L519.021 103.797C517.753 109.914 516.081 114.556 513.397 118.415C510.719 122.266 506.98 125.412 501.459 128.447C491.677 133.825 476.531 138.744 452.288 146.618C448.978 147.693 445.498 148.823 441.839 150.016C411.221 160.008 386.72 181.087 369.899 199.61C361.483 208.879 354.973 217.525 350.567 223.856C348.363 227.021 346.685 229.609 345.556 231.408C345.153 232.05 344.82 232.591 344.558 233.023Z" fill="#FF8E0A" stroke="black" stroke-width="2"/>
</svg>
